# xmcd
#
# Track frame offsets: 
#        150
#        12132
#        26260
#        37460
#        55002
#        64540
#        79417
#        93690
#        117870
#        135537
#        148865
#        162362
#        174072
#        189340
#        202687
#        220127
#
# Disc length: 3089 seconds
#
# Revision: 1
# Processed by: cddbd v1.5.2PL0 Copyright (c) Steve Scherf et al.
# Submitted via: ExactAudioCopy v1.3
#
DISCID=d40c0f10
DTITLE=Philomena Begley - Country Queen For 30 Years
DYEAR=1992
DGENRE=Country
TTITLE0=Walkin', Talkin', Cryin', Barely Beatin' Broken Heart
TTITLE1=A Picture Of Me (Whithout You)
TTITLE2=Every Second
TTITLE3=Look At Us
TTITLE4=Bright Lights And Country Music
TTITLE5=Start Living Agian
TTITLE6=The Bed You Made For Me
TTITLE7=Home I'll Be
TTITLE8=Our Wedding Day
TTITLE9=Just One Time
TTITLE10=If My Hearts Had Windows
TTITLE11=Family Tree
TTITLE12=Last Rose Of Summer
TTITLE13=Life Is Not Always A Rainbow
TTITLE14=Gold And Silver Days
TTITLE15=Bing Bang Boom
EXTD=
EXTT0=
EXTT1=
EXTT2=
EXTT3=
EXTT4=
EXTT5=
EXTT6=
EXTT7=
EXTT8=
EXTT9=
EXTT10=
EXTT11=
EXTT12=
EXTT13=
EXTT14=
EXTT15=
PLAYORDER=
